<svg width="100" height="36" viewBox="0 0 100 36" fill="none" xmlns="http://www.w3.org/2000/svg">
<g clip-path="url(#clip0_19_11)">
<path d="M67.8708 26.04H67.8469C63.5885 29.064 58.5646 32.232 53.134 35.568L52.9186 35.688C52.8952 35.6977 52.8742 35.7126 52.8573 35.7315C52.8404 35.7505 52.8281 35.7731 52.8211 35.7976C52.8142 35.8221 52.8129 35.8478 52.8174 35.8729C52.8218 35.8979 52.8319 35.9216 52.8468 35.9422C52.8617 35.9628 52.8811 35.9797 52.9035 35.9917C52.9259 36.0037 52.9507 36.0104 52.9761 36.0113C53.0014 36.0122 53.0266 36.0074 53.0498 35.9971C53.0731 35.9868 53.0936 35.9714 53.11 35.952L53.2775 35.856C57.8947 33.456 63.1818 30.6 68.4928 27.648L68.5885 27.6C68.275 27.1177 68.0332 26.5922 67.8708 26.04ZM95.8134 3.336C89.1148 -4.08 45.9091 2.592 27.5598 6.624L27.1292 6.72C27.0871 6.73089 27.0499 6.75583 27.0238 6.79073C26.9977 6.82563 26.9843 6.8684 26.9856 6.912C26.988 6.93368 26.9952 6.95454 27.0067 6.97301C27.0183 6.99149 27.0338 7.00709 27.0523 7.01865C27.0707 7.0302 27.0915 7.03741 27.1131 7.03972C27.1347 7.04204 27.1566 7.0394 27.177 7.032L27.6076 6.96C42.823 4.248 74.4737 0.480002 81.2679 7.248C83.3493 9.312 82.8708 11.976 80.4545 15.12C81.7883 15.9942 82.7318 17.3537 83.0861 18.912C92.488 12.648 98.8038 6.648 95.8134 3.336Z" fill="#CC2427"/>
<path d="M31.8182 20.232C31.2934 20.2336 30.7827 20.4016 30.3588 20.712C29.9246 21.0754 29.6427 21.5895 29.5694 22.152C29.4258 22.896 29.4976 23.4 29.7847 23.736C29.9519 23.899 30.1507 24.0258 30.3689 24.1084C30.587 24.1909 30.8198 24.2276 31.0526 24.216C31.4151 24.2234 31.7747 24.1496 32.1053 24C32.4243 23.852 32.6972 23.6197 32.8947 23.328C33.1185 22.9943 33.2731 22.6188 33.3493 22.224C33.4689 21.552 33.3732 21.072 33.0622 20.736C32.9034 20.5668 32.71 20.4342 32.4953 20.3471C32.2805 20.2601 32.0495 20.2209 31.8182 20.232ZM24.378 29.544L26.3636 18.312H29.9521L29.6651 19.752C30.058 19.2589 30.5798 18.885 31.1722 18.672C31.9096 18.3698 32.6964 18.2071 33.4928 18.192C34.4258 18.192 35 18.24 35.6938 18.6C36.3515 18.9311 36.8631 19.4957 37.1292 20.184C37.4111 20.9095 37.4776 21.7014 37.3206 22.464C37.221 23.1188 36.9919 23.747 36.6468 24.3116C36.3017 24.8763 35.8475 25.366 35.311 25.752C34.2105 26.544 33.2297 26.76 31.8182 26.76C31.3911 26.7679 30.9648 26.7195 30.5502 26.616C30.265 26.5537 29.9907 26.4486 29.7368 26.304C29.4888 26.1245 29.2638 25.9149 29.067 25.68L28.3971 29.544H24.378ZM65.7895 26.64H61.6268L63.732 14.976L67.7751 15.072L65.7895 26.64ZM45.0239 18.216L45.311 16.512L49.5694 15.6L49.1148 18.216H51.2201L50.8134 19.92H48.7799L47.5598 26.64H43.421L44.6651 19.92H43.11L43.421 18.24H45.0239V18.216ZM11.866 23.64C10.7511 23.8902 9.61128 24.011 8.46889 24C6.53109 24 4.97607 23.04 5.07176 21.24C5.11961 20.064 6.53109 17.568 10.0718 17.568C11.1932 17.542 12.2983 17.8421 13.2536 18.432L13.756 15.528C12.4793 15.0193 11.109 14.7902 9.73684 14.856C5.07176 14.904 0.59808 17.016 0.0478403 21.336C-0.502399 25.656 4.83253 26.832 7.20095 26.832C8.56459 26.832 9.99999 26.76 11.3158 26.64L11.866 23.64ZM57.2488 22.8L56.555 22.992L54.9521 23.28C54.573 23.3111 54.2054 23.4259 53.8756 23.616C53.7793 23.6704 53.6968 23.7463 53.6346 23.8379C53.5723 23.9295 53.532 24.0342 53.5167 24.144C53.4881 24.2505 53.4935 24.3634 53.5321 24.4667C53.5708 24.57 53.6407 24.6586 53.7321 24.72C53.9474 24.864 54.2823 24.912 54.7608 24.912C55.1166 24.913 55.4708 24.8645 55.8134 24.768C56.1281 24.6756 56.421 24.5205 56.6746 24.312C56.8423 24.1644 56.9664 23.9735 57.0335 23.76C57.1344 23.4473 57.2064 23.1259 57.2488 22.8ZM61.6507 20.04C61.6268 20.448 61.555 20.832 61.4593 21.432L60.7177 25.632C60.6782 25.8009 60.697 25.9783 60.7708 26.1352C60.8447 26.2921 60.9693 26.4192 61.1244 26.496V26.64H56.8421V25.56C56.1977 25.9446 55.5061 26.2431 54.7847 26.448C54.1128 26.6206 53.4207 26.7013 52.7273 26.688C51.3636 26.688 50.5742 26.544 50.0239 26.064C49.4737 25.584 49.2105 25.248 49.2344 24.576C49.2798 24.1161 49.4633 23.6809 49.7608 23.328C50.0736 22.985 50.4573 22.7147 50.8852 22.536C51.425 22.2939 51.9973 22.1322 52.5837 22.056C53.3493 21.936 54.4019 21.816 55.8134 21.696C56.287 21.6501 56.7531 21.5453 57.201 21.384C57.488 21.264 57.6076 21.144 57.6555 20.904C57.7033 20.664 57.6076 20.232 57.0335 20.112C55.5024 19.8 52.6316 20.304 51.1483 20.664L51.9378 18.504C53.8292 18.2022 55.7404 18.0418 57.6555 18.024C60.6938 18.048 61.6746 18.936 61.6507 20.04ZM37.201 26.64L38.6842 18.264H42.7751L41.2919 26.64H37.201ZM38.9234 16.344C39.0431 15.648 40.1196 15.096 41.3397 15.096C42.5598 15.096 43.421 15.648 43.3014 16.344C43.1818 17.04 42.1053 17.592 40.8852 17.592C39.6651 17.592 38.8038 17.016 38.9234 16.344ZM20.4545 22.776C20.2315 22.8667 19.9986 22.9312 19.7608 22.968L18.1818 23.256C17.7945 23.2836 17.4183 23.3985 17.0813 23.592C16.9844 23.6515 16.902 23.7319 16.8399 23.8274C16.7778 23.9229 16.7377 24.031 16.7225 24.144C16.6979 24.2496 16.7078 24.3603 16.7509 24.4598C16.794 24.5592 16.868 24.6421 16.9617 24.696C17.2675 24.8675 17.6176 24.9427 17.9665 24.912C18.3234 24.9049 18.6776 24.8484 19.0191 24.744C19.3338 24.6516 19.6268 24.4965 19.8804 24.288C20.048 24.1404 20.1722 23.9495 20.2392 23.736C20.3553 23.4277 20.4278 23.1045 20.4545 22.776ZM24.8565 20.04C24.8325 20.448 24.7608 20.808 24.6651 21.432L23.9234 25.608C23.884 25.7769 23.9027 25.9543 23.9765 26.1112C24.0504 26.2681 24.175 26.3953 24.3301 26.472V26.64H20.0478V25.584C19.3978 25.9511 18.7073 26.241 17.9904 26.448C17.3276 26.6277 16.6435 26.7165 15.9569 26.712C14.5694 26.712 13.7799 26.568 13.2536 26.088C12.7273 25.608 12.4163 25.272 12.4402 24.576C12.4916 24.1249 12.6747 23.6991 12.9665 23.352C13.2779 23.0015 13.6616 22.7231 14.0909 22.536C14.6419 22.3019 15.2209 22.1405 15.8134 22.056C16.555 21.936 17.6076 21.816 19.0191 21.696C19.4972 21.6816 19.9682 21.5757 20.4067 21.384C20.7177 21.264 20.8134 21.144 20.8612 20.904C20.9091 20.664 20.8134 20.232 20.2392 20.112C18.7081 19.824 15.8373 20.304 14.3541 20.688L15.1435 18.504C17.0351 18.2032 18.9462 18.0428 20.8612 18.024C23.8995 18.024 24.8804 18.912 24.8565 20.04Z" fill="white"/>
<path d="M82.4402 21.168L83.3732 21.072C83.6842 21.072 83.9474 21.144 83.9713 21.432C83.9952 21.72 83.6603 22.872 83.5885 23.184L82.9426 25.992C82.7034 27.144 82.4163 28.344 82.177 29.304H83.8038L84.7129 24.84C87.5359 21.912 88.6124 20.952 89.2584 20.952C89.3293 20.9444 89.4011 20.9529 89.4684 20.9768C89.5357 21.0006 89.5968 21.0393 89.6472 21.0899C89.6977 21.1405 89.7362 21.2018 89.76 21.2693C89.7838 21.3368 89.7922 21.4088 89.7847 21.48C89.8086 21.984 89.4737 23.16 89.378 23.496L88.4211 26.736C88.2297 27.48 88.0622 28.128 88.0861 28.608C88.1101 29.088 88.5407 29.64 89.1627 29.64C90.3589 29.64 91.244 28.392 91.9856 27.168L91.7703 26.76C91.4593 27.24 90.7656 28.32 90.1914 28.32C90.0239 28.32 89.8565 28.2 89.8565 27.912C89.8758 27.4631 89.9562 27.019 90.0957 26.592L91.1483 22.776C91.4115 21.72 91.555 21.048 91.555 20.688C91.555 20.328 91.1005 19.656 90.4785 19.656C89.4019 19.656 87.9665 20.448 84.9522 23.928H84.9043L85.2871 22.224C85.5024 21.288 85.6938 20.328 85.8852 19.656C84.7517 20.0601 83.5929 20.3888 82.4163 20.64L82.4402 21.168ZM98.445 21.264C98.4211 20.592 98.0861 20.136 97.3923 20.136C95.7177 20.136 93.9474 23.424 93.6364 24.744C96.3636 24.744 98.5167 23.112 98.445 21.264ZM98.8038 26.424L99.1148 26.64C98.3014 28.296 96.6507 29.64 94.689 29.64C93.0861 29.64 91.7943 28.584 91.7225 26.592C91.5789 22.992 94.9522 19.656 97.6794 19.656C98.8517 19.656 99.9522 20.184 100 21.456C100.096 24.312 96.1005 25.176 93.4689 25.224C93.3827 25.5689 93.3504 25.9252 93.3732 26.28C93.4211 27.48 94.1388 28.464 95.5981 28.464C97.0574 28.464 98.1579 27.432 98.8038 26.424ZM70.5981 24.096C70.6699 26.712 72.3206 28.848 74.4737 28.848C78.6364 28.848 80.4067 23.712 80.2871 20.28C80.1914 17.664 78.5168 15.528 76.3636 15.528C72.7751 15.528 70.4545 20.64 70.5981 24.096ZM68.3971 23.952C68.2297 19.488 71.7225 14.928 76.7703 14.928C80.1675 14.928 82.3684 17.208 82.488 20.664C82.6555 25.368 79.4019 29.688 74.1148 29.688C70.7177 29.688 68.5167 27.432 68.3971 23.952Z" fill="white"/>
</g>
<defs>
<clipPath id="clip0_19_11">
<rect width="100" height="36" fill="white"/>
</clipPath>
</defs>
</svg>
