<svg width="65" height="81" viewBox="0 0 65 81" fill="none" xmlns="http://www.w3.org/2000/svg">
<g clip-path="url(#clip0_61_145)">
<path d="M46.2378 75.3383C46.7531 75.4002 47.2703 75.4528 47.7837 75.5309C49.9593 75.8646 52.1349 76.1897 54.3049 76.5562C54.8022 76.6404 55.2826 76.8571 55.7557 77.0515C56.1423 77.2088 56.6508 77.423 56.5246 77.8942C56.4382 78.2174 56.031 78.5704 55.6898 78.6905C54.7269 79.0292 53.7386 79.3716 52.7329 79.5035C49.3626 79.9369 45.9855 80.3381 42.6009 80.6415C37.5772 81.0916 32.5379 81.0644 27.5036 80.8607C22.4694 80.657 17.4519 80.2768 12.5034 79.2756C11.7418 79.1155 10.9972 78.8842 10.2793 78.5846C9.99149 78.4663 9.60548 78.0849 9.62537 77.854C9.64899 77.5679 10.0039 77.1543 10.2936 77.0726C11.7512 76.6633 13.2207 76.2609 14.7125 76.0144C16.6208 75.6993 18.5552 75.5358 20.4778 75.3049C20.5834 75.2919 20.686 75.2578 20.9129 75.2046C20.1347 74.7711 19.4503 74.4232 18.7995 74.0238C11.4398 69.5274 6.45152 63.2001 4.07641 54.9069C2.6567 49.9492 2.46462 44.8893 2.94574 39.7706C3.60027 32.8074 5.60429 26.246 8.67061 19.9862C10.7996 15.6372 13.4171 11.6175 16.862 8.1743C19.8009 5.23509 23.0779 2.76955 27.0033 1.28601C32.9519 -0.962197 38.6271 -0.199998 43.9728 3.09399C49.1382 6.28273 53.043 10.7203 56.1336 15.8731C59.7218 21.8473 62.2086 28.4125 63.4765 35.2587C64.3237 39.7836 64.6494 44.35 64.1037 48.9331C63.0003 58.1984 59.0433 65.9529 51.5767 71.744C50.0128 72.957 48.2369 73.8975 46.5592 74.9637C46.451 75.0324 46.3435 75.103 46.236 75.1723L46.2378 75.3383ZM7.24157 38.2103L7.11725 38.2307C7.08244 38.5298 7.04576 38.8295 7.0122 39.1285C6.63924 42.4485 6.44531 45.7741 6.91212 49.0972C7.96883 56.6313 11.2359 63.0285 17.1324 67.92C24.6978 74.2002 33.259 75.581 42.461 72.3118C48.4544 70.1824 52.9734 66.0842 56.1902 60.633C59.2459 55.4548 60.5202 49.808 60.2336 43.8144C60.1758 42.6027 60.0285 41.3947 59.9228 40.1848L59.7587 40.1681C59.6139 40.4053 59.4641 40.6399 59.3236 40.8802C58.6765 41.9947 58.0438 43.1166 57.3818 44.2237C56.9 45.0286 56.6713 45.0639 55.9689 44.467C54.436 43.1668 52.9187 41.8486 51.3902 40.5433C50.6872 39.9427 50.4373 39.9687 49.8599 40.6907C47.4211 43.7391 44.9837 46.7883 42.5474 49.8383C41.8177 50.7516 41.4845 50.7782 40.6031 50.0173C37.5457 47.3755 34.487 44.7349 31.4271 42.0956C30.9367 41.6721 30.6191 41.6721 30.1305 42.0696C27.3768 44.306 24.6211 46.5406 21.8633 48.7734C20.5685 49.8198 20.1695 49.7219 19.4422 48.2161C18.2757 45.7964 17.1085 43.3767 15.9408 40.9569C15.4845 40.0158 15.1588 39.9242 14.2581 40.4659C12.7456 41.3741 11.233 42.2836 9.72048 43.1946C9.15359 43.5352 8.85025 43.4553 8.61591 42.8473C8.41948 42.3371 8.27776 41.8052 8.12361 41.2789C7.82586 40.2579 7.53558 39.2326 7.24157 38.2103ZM58.2924 31.3641C58.2153 31.0025 58.1793 30.7802 58.1202 30.5642C57.1201 26.8999 55.811 23.3551 53.9555 20.0283C50.8811 14.5177 47.0795 9.64978 41.6555 6.19357C39.2039 4.6314 36.5783 3.72431 33.6661 3.73917C30.4282 3.75403 27.5316 4.86854 24.86 6.62079C21.4897 8.83433 18.7205 11.672 16.2945 14.8601C15.9551 15.3065 15.6555 15.7833 15.4242 16.1232C15.6443 16.5783 15.8475 16.8966 15.9557 17.2439C16.1422 17.8396 16.2783 18.4501 16.4126 19.0593C16.5922 19.8742 16.6916 19.9361 17.491 19.6692C20.2459 18.7491 23.0016 17.8307 25.7582 16.9139C26.4991 16.6662 26.6956 16.7851 26.9038 17.5331C27.2581 18.8094 27.6103 20.0855 27.9605 21.3614C28.2713 22.492 28.5628 23.6282 28.8929 24.7532C29.0887 25.4213 29.3336 25.5191 29.9888 25.282C30.1131 25.2368 30.2337 25.1798 30.3574 25.1303C33.6817 23.7904 37.0121 22.4623 40.3265 21.0976C40.8909 20.8648 41.2589 20.9645 41.5958 21.4264C42.5903 22.7886 43.6209 24.1254 44.5794 25.513C45.84 27.3358 47.0409 29.1995 48.2773 31.0397C48.7192 31.6966 49.0717 31.7208 49.6448 31.1524C50.1303 30.6725 50.6219 30.1976 51.0856 29.6973C51.3448 29.4181 51.5699 29.3147 51.9677 29.4639C52.695 29.7376 53.4527 29.9301 54.1986 30.1518C55.522 30.5468 56.8466 30.9357 58.2924 31.3641ZM37.9713 33.4835C37.9675 34.4185 38.2199 35.2172 38.6861 35.7609C39.3605 36.5429 40.3644 36.5658 41.0687 35.8178C42.0806 34.7386 42.3038 32.4966 41.5231 31.244C40.8716 30.1988 39.5762 30.1066 38.7992 31.0657C38.2317 31.7666 37.9706 32.5839 37.9713 33.4835ZM24.0581 33.525C23.784 32.7758 23.5826 32.0118 23.2314 31.3239C22.9175 30.7103 22.3463 30.3332 21.5954 30.418C20.8706 30.5022 20.4647 30.9976 20.2105 31.6167C19.6262 33.0452 19.827 34.3974 20.7258 35.6296C21.4555 36.6308 22.7267 36.6122 23.357 35.5466C23.6982 34.9702 23.8126 34.26 24.0581 33.525Z" fill="#214EFF"/>
<path d="M15.4217 16.1232C15.4217 16.1232 9.45443 25.968 7.24156 38.2103C5.02869 50.4526 24.7363 53.1088 24.7363 53.1088L55.3025 52.3497L59.6829 45.1413L59.7581 40.1681C59.7581 40.1681 60.0366 37.063 58.2924 31.3641C56.5482 25.6653 37.4964 14.6935 37.4964 14.6935L15.4217 16.1232Z" fill="#070707"/>
<path d="M2.19111 79.4558C1.63665 79.2936 1.01319 79.1908 0.466186 78.9289C-0.121841 78.6471 -0.138002 78.0893 0.330679 77.6286C1.15491 76.8162 3.21798 76.7618 4.09194 77.5332C4.67375 78.0459 4.62776 78.7097 3.91044 79.0285C3.40632 79.2508 2.82638 79.3047 2.19111 79.4558Z" fill="black"/>
<path d="M63.2129 79.231C62.8046 79.1499 62.3427 79.1214 61.9337 78.953C61.7006 78.8564 61.4277 78.5376 61.4203 78.3103C61.4128 78.0831 61.6689 77.7407 61.8977 77.6478C62.8363 77.2608 63.7879 77.3184 64.6662 77.8459C64.8415 77.9512 65.0255 78.2527 64.9969 78.4298C64.9627 78.6422 64.7396 78.9171 64.5357 78.9871C64.1354 79.1338 63.6903 79.1542 63.2129 79.231Z" fill="black"/>
<path d="M6.05992 74.711C5.56264 74.5538 5.08402 74.4733 4.6806 74.2584C4.22497 74.0157 4.21379 73.5854 4.56188 73.2151C5.20834 72.526 6.8251 72.5068 7.4958 73.1798C7.86316 73.5513 7.87621 73.973 7.42929 74.2269C7.01717 74.4634 6.52487 74.5532 6.05992 74.711Z" fill="black"/>
<path d="M60.3673 74.5551L60.1808 74.5365C59.5032 74.4659 59.0489 74.1458 59.0277 73.7235C59.006 73.2839 59.5573 72.8115 60.1851 72.7366C60.2792 72.7254 60.3742 72.7242 60.4686 72.7329C61.1331 72.7898 61.7466 73.2901 61.731 73.7514C61.7155 74.2127 61.1455 74.5644 60.3673 74.5551Z" fill="black"/>
<path d="M58.2924 31.3641C56.8465 30.9369 55.5219 30.5468 54.1986 30.153C53.4526 29.9314 52.6949 29.7388 51.9677 29.4651C51.5698 29.3159 51.3461 29.4193 51.0856 29.6986C50.6219 30.1989 50.1302 30.6738 49.6448 31.1536C49.0717 31.7195 48.7192 31.6979 48.2773 31.0409C47.0409 29.2008 45.84 27.3371 44.5794 25.5142C43.6209 24.1279 42.5903 22.7899 41.5958 21.4277C41.2589 20.9658 40.8909 20.8661 40.3265 21.0989C37.0121 22.4611 33.6816 23.7917 30.3573 25.1316C30.233 25.1811 30.1131 25.2381 29.9887 25.2833C29.3336 25.5204 29.0887 25.4226 28.8929 24.7545C28.5622 23.6295 28.2713 22.4933 27.9605 21.3627C27.6091 20.0859 27.2568 18.8098 26.9038 17.5343C26.6955 16.7839 26.4991 16.6675 25.7582 16.9152C23.0008 17.8286 20.2451 18.7471 17.491 19.6705C16.6916 19.9373 16.5922 19.8754 16.4125 19.0606C16.2783 18.4513 16.1403 17.8408 15.9557 17.2452C15.8475 16.8978 15.6449 16.5796 15.4242 16.1245C15.6579 15.7846 15.9575 15.3078 16.2944 14.8614C18.7186 11.6733 21.4897 8.83559 24.86 6.62206C27.5316 4.86856 30.4282 3.75405 33.6673 3.73919C36.5795 3.72433 39.2051 4.63142 41.6567 6.19359C47.0807 9.6498 50.8824 14.5153 53.9568 20.0284C55.8122 23.3552 57.1213 26.9012 58.1214 30.5642C58.1792 30.7803 58.2153 31.0025 58.2924 31.3641Z" fill="#FFFAEB"/>
<path d="M7.24153 38.2103C7.53555 39.2338 7.82583 40.2579 8.12482 41.2789C8.27897 41.8052 8.42069 42.3371 8.61712 42.8473C8.85022 43.4553 9.1548 43.5352 9.72169 43.1947C11.2342 42.2865 12.7468 41.377 14.2593 40.466C15.16 39.9242 15.4857 40.0158 15.942 40.957C17.1131 43.3755 18.2812 45.795 19.4465 48.2155C20.1738 49.7195 20.5728 49.8173 21.8676 48.7728C24.6267 46.5438 27.3824 44.3092 30.1348 42.069C30.6234 41.6715 30.9429 41.6715 31.4315 42.095C34.4909 44.7343 37.5496 47.3749 40.6074 50.0167C41.4888 50.7777 41.822 50.751 42.5518 49.8377C44.9896 46.7889 47.4271 43.7397 49.8642 40.6901C50.4416 39.9682 50.6915 39.9421 51.3945 40.5427C52.923 41.848 54.4403 43.1656 55.9732 44.4664C56.6756 45.0633 56.9056 45.0237 57.3861 44.2231C58.0481 43.1185 58.6809 41.9941 59.3279 40.8796C59.4678 40.6393 59.6176 40.4047 59.763 40.1675L59.9271 40.1842C60.0334 41.3941 60.1808 42.599 60.2379 43.8138C60.5251 49.8074 59.2502 55.4543 56.1932 60.633C52.9765 66.0817 48.4575 70.1825 42.4641 72.3118C33.2645 75.581 24.7008 74.2003 17.1354 67.92C11.239 63.0249 7.97315 56.6307 6.9152 49.0972C6.44838 45.7741 6.6448 42.4486 7.01527 39.1286C7.04449 38.8295 7.19926 38.2171 7.24153 38.2103Z" fill="#FFFAEB"/>
<path d="M37.9713 33.4836C37.9713 32.5839 38.2317 31.7666 38.7993 31.0688C39.5763 30.1097 40.8716 30.202 41.5231 31.2471C42.3038 32.4997 42.0825 34.7417 41.0687 35.821C40.3657 36.5701 39.3606 36.546 38.6861 35.764C38.2181 35.2179 37.9676 34.4185 37.9713 33.4836Z" fill="#E2DFD0"/>
<path d="M24.0581 33.5251C23.8126 34.26 23.6982 34.9702 23.357 35.5473C22.7273 36.6129 21.4555 36.6321 20.7258 35.6302C19.827 34.3981 19.6262 33.0458 20.2105 31.6174C20.4647 30.9982 20.8706 30.5029 21.5954 30.4181C22.3463 30.3314 22.9175 30.7103 23.2314 31.3239C23.5826 32.0118 23.784 32.7759 24.0581 33.5251Z" fill="#E2DFD0"/>
</g>
<defs>
<clipPath id="clip0_61_145">
<rect width="65" height="81" fill="white"/>
</clipPath>
</defs>
</svg>
