<svg width="260" height="242" viewBox="0 0 260 242" fill="none" xmlns="http://www.w3.org/2000/svg">
<ellipse cx="130" cy="121" rx="130" ry="121" fill="#FFF9F9"/>
<g clip-path="url(#clip0_64_16)">
<path d="M157.898 198.139C158.945 198.279 159.995 198.399 161.038 198.576C165.456 199.334 169.874 200.073 174.281 200.905C175.291 201.097 176.266 201.589 177.227 202.031C178.012 202.388 179.045 202.875 178.788 203.945C178.613 204.679 177.786 205.481 177.093 205.754C175.138 206.523 173.131 207.301 171.088 207.6C164.244 208.585 157.386 209.496 150.513 210.186C140.311 211.208 130.077 211.146 119.854 210.684C109.63 210.221 99.4407 209.357 89.3915 207.083C87.8449 206.719 86.3327 206.194 84.8749 205.513C84.2904 205.245 83.5065 204.378 83.5469 203.854C83.5949 203.204 84.3157 202.264 84.9039 202.078C87.864 201.149 90.8482 200.235 93.8777 199.675C97.753 198.959 101.681 198.588 105.586 198.063C105.8 198.033 106.009 197.956 106.469 197.835C104.889 196.85 103.499 196.06 102.177 195.153C87.2316 184.939 77.1016 170.566 72.2783 151.727C69.3952 140.465 69.0051 128.971 69.9821 117.343C71.3114 101.525 75.381 86.6207 81.608 72.4008C85.9314 62.5215 91.2471 53.3904 98.2428 45.5688C104.211 38.8921 110.866 33.2913 118.837 29.9213C130.918 24.8143 142.443 26.5457 153.299 34.0283C163.788 41.2719 171.718 51.3524 177.994 63.0574C185.281 76.6283 190.331 91.5419 192.906 107.094C194.627 117.373 195.288 127.746 194.18 138.157C191.939 159.204 183.903 176.819 168.74 189.974C165.564 192.729 161.958 194.866 158.551 197.288C158.331 197.444 158.113 197.604 157.895 197.762L157.898 198.139ZM78.706 113.799L78.4535 113.845C78.3828 114.524 78.3083 115.205 78.2402 115.885C77.4828 123.426 77.089 130.981 78.037 138.529C80.1829 155.644 86.8176 170.176 98.7919 181.287C114.155 195.554 131.541 198.69 150.229 191.264C162.4 186.427 171.577 177.117 178.109 164.734C184.315 152.972 186.903 140.144 186.321 126.529C186.203 123.777 185.904 121.032 185.689 118.284L185.356 118.246C185.062 118.785 184.758 119.318 184.473 119.864C183.159 122.395 181.874 124.944 180.529 127.459C179.551 129.287 179.086 129.367 177.66 128.012C174.547 125.058 171.466 122.063 168.362 119.098C166.934 117.734 166.427 117.793 165.254 119.433C160.301 126.358 155.351 133.285 150.404 140.213C148.922 142.288 148.245 142.348 146.456 140.62C140.247 134.618 134.035 128.62 127.821 122.625C126.825 121.663 126.18 121.663 125.188 122.566C119.596 127.646 114 132.722 108.399 137.794C105.77 140.171 104.96 139.949 103.483 136.528C101.114 131.031 98.7435 125.535 96.372 120.038C95.4455 117.9 94.784 117.692 92.955 118.923C89.8833 120.986 86.8117 123.052 83.7401 125.121C82.5888 125.895 81.9728 125.713 81.4969 124.332C81.0981 123.173 80.8103 121.965 80.4972 120.769C79.8925 118.45 79.303 116.121 78.706 113.799ZM182.378 98.2469C182.222 97.4255 182.149 96.9206 182.029 96.4297C179.998 88.1059 177.339 80.0537 173.571 72.4965C167.328 59.9785 159.608 48.9205 148.593 41.0693C143.614 37.5207 138.282 35.4602 132.368 35.4939C125.793 35.5277 119.91 38.0594 114.485 42.0398C107.641 47.0681 102.017 53.5142 97.0903 60.7563C96.4011 61.7704 95.7926 62.8534 95.3231 63.6256C95.7699 64.6594 96.1827 65.3823 96.4023 66.1714C96.781 67.5244 97.0575 68.9113 97.3301 70.2953C97.6949 72.1462 97.8969 72.2869 99.5202 71.6807C105.115 69.5906 110.711 67.5043 116.309 65.4217C117.814 64.8591 118.213 65.1291 118.635 66.8282C119.355 69.7275 120.07 72.6263 120.781 75.5247C121.413 78.093 122.005 80.6739 122.675 83.2296C123.072 84.7472 123.57 84.9694 124.9 84.4307C125.153 84.328 125.398 84.1986 125.649 84.0861C132.4 81.0424 139.163 78.0255 145.894 74.9255C147.04 74.3967 147.787 74.6231 148.471 75.6724C150.491 78.7667 152.584 81.8034 154.531 84.9553C157.091 89.0961 159.529 93.3297 162.04 97.5099C162.938 99.0022 163.653 99.0571 164.817 97.7659C165.803 96.6758 166.801 95.597 167.743 94.4606C168.27 93.8262 168.727 93.5913 169.534 93.9303C171.011 94.552 172.55 94.9894 174.065 95.493C176.752 96.3903 179.442 97.2736 182.378 98.2469ZM141.111 103.061C141.103 105.185 141.616 107 142.563 108.235C143.932 110.011 145.971 110.063 147.401 108.364C149.456 105.912 149.909 100.819 148.324 97.974C147.001 95.5998 144.37 95.3903 142.792 97.569C141.64 99.1611 141.11 101.018 141.111 103.061ZM112.857 103.156C112.3 101.454 111.891 99.7181 111.178 98.1555C110.54 96.7616 109.38 95.9051 107.855 96.0977C106.383 96.289 105.559 97.4142 105.043 98.8208C103.856 102.066 104.264 105.137 106.089 107.936C107.571 110.211 110.153 110.168 111.433 107.748C112.126 106.438 112.358 104.825 112.857 103.156Z" fill="#214EFF"/>
<path d="M68.4496 207.492C67.3236 207.124 66.0575 206.89 64.9467 206.295C63.7526 205.655 63.7197 204.388 64.6715 203.342C66.3454 201.496 70.535 201.372 72.3098 203.125C73.4913 204.29 73.3979 205.797 71.9412 206.522C70.9175 207.027 69.7397 207.149 68.4496 207.492Z" fill="#312783"/>
<path d="M192.371 206.982C191.541 206.797 190.604 206.733 189.773 206.35C189.3 206.131 188.745 205.406 188.73 204.89C188.715 204.374 189.235 203.596 189.7 203.385C191.606 202.506 193.538 202.637 195.322 203.835C195.678 204.074 196.052 204.759 195.994 205.162C195.924 205.644 195.471 206.269 195.057 206.427C194.244 206.761 193.34 206.807 192.371 206.982Z" fill="#312783"/>
<path d="M76.3062 196.714C75.2964 196.357 74.3244 196.174 73.5052 195.686C72.5799 195.135 72.5572 194.157 73.2641 193.316C74.5769 191.75 77.8602 191.707 79.2222 193.236C79.9682 194.08 79.9947 195.037 79.0871 195.614C78.2502 196.151 77.2505 196.355 76.3062 196.714Z" fill="#312783"/>
<path d="M186.592 196.36L186.213 196.317C184.837 196.157 183.915 195.43 183.872 194.471C183.828 193.472 184.947 192.399 186.222 192.229C186.413 192.203 186.606 192.201 186.798 192.22C188.147 192.35 189.393 193.486 189.362 194.534C189.33 195.582 188.172 196.381 186.592 196.36Z" fill="#312783"/>
<path d="M78.706 113.799C79.3031 116.124 79.8926 118.45 80.4997 120.769C80.8128 121.965 81.1006 123.173 81.4995 124.332C81.9729 125.713 82.5914 125.895 83.7426 125.121C86.8142 123.058 89.8859 120.992 92.9575 118.923C94.7866 117.692 95.448 117.9 96.3746 120.038C98.7528 125.532 101.125 131.028 103.491 136.527C104.968 139.943 105.779 140.165 108.408 137.792C114.011 132.729 119.607 127.653 125.197 122.564C126.189 121.661 126.838 121.661 127.83 122.623C134.043 128.619 140.255 134.617 146.464 140.618C148.254 142.347 148.931 142.286 150.413 140.212C155.364 133.286 160.314 126.359 165.263 119.432C166.435 117.792 166.943 117.733 168.371 119.097C171.475 122.062 174.556 125.055 177.669 128.01C179.095 129.366 179.562 129.276 180.538 127.457C181.882 124.948 183.167 122.394 184.481 119.862C184.765 119.316 185.07 118.783 185.365 118.245L185.698 118.283C185.914 121.031 186.213 123.768 186.329 126.528C186.913 140.143 184.324 152.97 178.116 164.734C171.583 177.111 162.406 186.427 150.235 191.264C131.553 198.69 114.162 195.554 98.7982 181.287C86.8239 170.168 80.1917 155.642 78.0433 138.529C77.0953 130.981 77.4942 123.426 78.2465 115.885C78.3147 115.205 78.3891 114.524 78.4598 113.845L78.706 113.799Z" fill="#FFFAEB"/>
<path d="M182.378 98.2469C179.442 97.2764 176.752 96.3903 174.065 95.4958C172.55 94.9922 171.011 94.5548 169.534 93.9331C168.726 93.5942 168.272 93.8291 167.743 94.4634C166.801 95.5999 165.803 96.6787 164.817 97.7687C163.653 99.0543 162.938 99.005 162.04 97.5127C159.529 93.3326 157.09 89.099 154.531 84.9582C152.584 81.809 150.491 78.7695 148.471 75.6752C147.787 74.6259 147.04 74.3995 145.894 74.9283C139.163 78.0227 132.4 81.0453 125.649 84.089C125.396 84.2015 125.153 84.3309 124.9 84.4336C123.57 84.9722 123.072 84.75 122.675 83.2324C122.003 80.6768 121.412 78.0958 120.781 75.5275C120.068 72.6273 119.352 69.7285 118.635 66.831C118.213 65.1263 117.814 64.8619 116.309 65.4245C110.709 67.4996 105.113 69.5859 99.5202 71.6835C97.8969 72.2897 97.6949 72.1491 97.3301 70.2981C97.0574 68.9141 96.7772 67.5273 96.4023 66.1742C96.1826 65.3851 95.7711 64.6622 95.323 63.6284C95.7976 62.8562 96.4061 61.7732 97.0902 60.7591C102.013 53.517 107.641 47.0709 114.485 42.0427C119.91 38.0594 125.793 35.5277 132.371 35.4939C138.285 35.4602 143.617 37.5207 148.595 41.0694C159.61 48.9205 167.33 59.9729 173.574 72.4965C177.342 80.0537 180 88.1088 182.031 96.4297C182.149 96.9206 182.222 97.4255 182.378 98.2469Z" fill="#FFFAEB"/>
<path d="M141.111 103.061C141.111 101.018 141.64 99.1612 142.792 97.576C144.37 95.3974 147.001 95.6069 148.324 97.9811C149.909 100.826 149.46 105.919 147.401 108.371C145.973 110.073 143.932 110.018 142.563 108.242C141.612 107.001 141.103 105.185 141.111 103.061Z" fill="#312783"/>
<path d="M112.857 103.156C112.358 104.825 112.126 106.438 111.433 107.749C110.154 110.17 107.571 110.214 106.089 107.938C104.264 105.139 103.856 102.067 105.043 98.8222C105.559 97.4157 106.383 96.2904 107.855 96.0978C109.38 95.9008 110.54 96.7616 111.178 98.1555C111.891 99.7181 112.3 101.454 112.857 103.156Z" fill="#312783"/>
<path d="M78.7059 113.799C78.7059 113.799 79.4961 90.1426 95.318 63.6256C111.14 37.1086 156.39 73.09 156.969 73.09C157.549 73.09 182.378 98.2469 182.378 98.2469C182.378 98.2469 186.367 114.141 185.688 118.284C185.009 122.428 178.047 139.241 178.047 139.241C178.047 139.241 149.041 164.451 148.074 164.667C147.107 164.882 122.162 161.432 116.747 160.142C111.332 158.852 95.4758 141.823 93.3488 140.313C91.2218 138.802 80.5868 128.678 80.5868 128.678L78.7059 113.799Z" fill="#FFFAEB"/>
</g>
<defs>
<clipPath id="clip0_64_16">
<rect width="132" height="184" fill="white" transform="translate(64 27)"/>
</clipPath>
</defs>
</svg>
