<svg width="66" height="84" viewBox="0 0 66 84" fill="none" xmlns="http://www.w3.org/2000/svg">
<g clip-path="url(#clip0_61_144)">
<path d="M46.9492 78.1286C47.4724 78.1928 47.9975 78.2474 48.5189 78.3283C50.7279 78.6744 52.937 79.0115 55.1403 79.3916C55.6452 79.4789 56.1331 79.7037 56.6134 79.9053C57.006 80.0684 57.5223 80.2905 57.3942 80.7792C57.3064 81.1144 56.893 81.4804 56.5465 81.6049C55.5689 81.9562 54.5653 82.3112 53.5441 82.448C50.122 82.8975 46.6929 83.3136 43.2563 83.6282C38.1553 84.095 33.0385 84.0667 27.9268 83.8555C22.815 83.6442 17.7203 83.25 12.6957 82.2117C11.9224 82.0457 11.1663 81.8058 10.4374 81.4951C10.1452 81.3725 9.75324 80.977 9.77344 80.7374C9.79742 80.4408 10.1578 80.0119 10.4519 79.9271C11.932 79.5027 13.424 79.0853 14.9388 78.8298C16.8765 78.5029 18.8406 78.3334 20.7928 78.0939C20.9001 78.0804 21.0042 78.0451 21.2346 77.9899C20.4444 77.5404 19.7495 77.1796 19.0887 76.7654C11.6158 72.1024 6.55076 65.5408 4.13911 56.9404C2.69755 51.7991 2.50252 46.5518 2.99104 41.2436C3.65565 34.0225 5.69049 27.2181 8.80398 20.7264C10.9657 16.2163 13.6235 12.0478 17.1214 8.47702C20.1055 5.42896 23.4329 2.8721 27.4187 1.33362C33.4588 -0.997858 39.2213 -0.20743 44.6492 3.20856C49.8941 6.5154 53.8591 11.1174 56.9972 16.4609C60.6406 22.6564 63.1656 29.4648 64.453 36.5646C65.3133 41.2571 65.644 45.9926 65.0899 50.7454C63.9696 60.3539 59.9516 68.3956 52.3702 74.4012C50.7822 75.659 48.979 76.6344 47.2755 77.7401C47.1657 77.8114 47.0565 77.8846 46.9473 77.9565L46.9492 78.1286ZM7.35296 39.6255L7.22673 39.6467C7.19138 39.9568 7.15414 40.2676 7.12006 40.5777C6.74137 44.0207 6.54445 47.4694 7.01845 50.9156C8.09141 58.7287 11.4088 65.3629 17.3959 70.4355C25.0777 76.9484 33.7706 78.3803 43.1143 74.99C49.1999 72.7818 53.7884 68.5317 57.0546 62.8786C60.1574 57.5087 61.4512 51.6527 61.1603 45.4372C61.1016 44.1806 60.952 42.9278 60.8447 41.6731L60.6781 41.6558C60.531 41.9017 60.3789 42.1451 60.2363 42.3942C59.5792 43.55 58.9367 44.7135 58.2645 45.8616C57.7754 46.6963 57.5431 46.7329 56.8299 46.1139C55.2735 44.7655 53.7328 43.3985 52.1808 42.0449C51.467 41.4221 51.2133 41.449 50.6269 42.1977C48.1507 45.359 45.6757 48.5212 43.202 51.6842C42.461 52.6313 42.1227 52.6589 41.2277 51.8698C38.1233 49.1301 35.0176 46.3917 31.9106 43.6547C31.4126 43.2155 31.0901 43.2155 30.594 43.6277C27.798 45.947 24.9999 48.2643 22.1996 50.5798C20.8849 51.6649 20.4797 51.5635 19.7413 50.0019C18.5568 47.4925 17.3717 44.9832 16.186 42.4738C15.7227 41.4978 15.392 41.4028 14.4774 41.9647C12.9416 42.9064 11.4058 43.8497 9.87001 44.7944C9.29439 45.1476 8.98639 45.0647 8.74844 44.4342C8.549 43.9051 8.40509 43.3535 8.24857 42.8077C7.94624 41.7489 7.65149 40.6856 7.35296 39.6255ZM59.1892 32.5257C59.1109 32.1507 59.0743 31.9202 59.0144 31.6961C57.9988 27.8962 56.6696 24.2201 54.7856 20.7701C51.6639 15.0554 47.8038 10.0072 42.2963 6.42293C39.807 4.80291 37.141 3.86222 34.184 3.87763C30.8963 3.89305 27.9552 5.04883 25.2424 6.86598C21.8203 9.1615 19.0085 12.1043 16.5451 15.4105C16.2005 15.8734 15.8963 16.3678 15.6615 16.7204C15.8849 17.1923 16.0913 17.5223 16.2011 17.8826C16.3905 18.5003 16.5287 19.1334 16.665 19.7652C16.8474 20.6102 16.9484 20.6744 17.7601 20.3977C20.5574 19.4435 23.3555 18.4911 26.1545 17.5403C26.9068 17.2835 27.1063 17.4068 27.3177 18.1824C27.6775 19.506 28.0351 20.8294 28.3907 22.1525C28.7062 23.325 29.0022 24.5033 29.3374 25.67C29.5362 26.3628 29.7849 26.4643 30.4501 26.2183C30.5764 26.1715 30.6988 26.1124 30.8244 26.061C34.1998 24.6715 37.5816 23.2942 40.9469 21.879C41.52 21.6376 41.8936 21.741 42.2357 22.22C43.2455 23.6326 44.292 25.0189 45.2652 26.4579C46.5452 28.3482 47.7646 30.2809 49.02 32.1893C49.4688 32.8705 49.8266 32.8956 50.4085 32.3061C50.9015 31.8085 51.4007 31.316 51.8716 30.7972C52.1347 30.5076 52.3632 30.4004 52.7672 30.5551C53.5056 30.8389 54.275 31.0386 55.0324 31.2685C56.3761 31.6782 57.7211 32.0814 59.1892 32.5257ZM38.5554 34.7237C38.5516 35.6932 38.8079 36.5215 39.2813 37.0853C39.9661 37.8963 40.9854 37.92 41.7005 37.1444C42.728 36.0252 42.9546 33.7001 42.1618 32.4012C41.5004 31.3173 40.1851 31.2216 39.3961 32.2162C38.8199 32.9431 38.5548 33.7907 38.5554 34.7237ZM24.4283 34.7667C24.1499 33.9897 23.9454 33.1974 23.5888 32.484C23.2701 31.8477 22.6901 31.4566 21.9276 31.5446C21.1917 31.6319 20.7795 32.1456 20.5214 32.7877C19.9281 34.269 20.132 35.6714 21.0446 36.9492C21.7856 37.9875 23.0763 37.9682 23.7163 36.8631C24.0628 36.2653 24.1789 35.5289 24.4283 34.7667Z" fill="#214EFF"/>
<path d="M2.22481 82.3986C1.66182 82.2304 1.02877 82.1238 0.473356 81.8522C-0.123718 81.56 -0.140127 80.9815 0.335765 80.5037C1.17268 79.6613 3.26749 79.6048 4.15489 80.4048C4.74565 80.9365 4.69895 81.6248 3.97059 81.9555C3.45873 82.186 2.86986 82.2419 2.22481 82.3986Z" fill="#312783"/>
<path d="M64.1854 82.1655C63.7707 82.0814 63.3018 82.0519 62.8865 81.8772C62.6498 81.777 62.3727 81.4464 62.3652 81.2107C62.3576 80.9751 62.6176 80.62 62.8499 80.5237C63.8029 80.1223 64.7692 80.1821 65.661 80.7291C65.839 80.8383 66.0259 81.151 65.9968 81.3346C65.9621 81.5549 65.7355 81.84 65.5285 81.9125C65.122 82.0647 64.6701 82.0859 64.1854 82.1655Z" fill="#312783"/>
<path d="M6.15315 77.4782C5.64823 77.3151 5.16224 77.2316 4.75262 77.0088C4.28998 76.7571 4.27862 76.3108 4.63207 75.9268C5.28847 75.2122 6.93011 75.1923 7.61113 75.8903C7.98414 76.2755 7.9974 76.7128 7.54359 76.976C7.12514 77.2213 6.62526 77.3144 6.15315 77.4782Z" fill="#312783"/>
<path d="M61.296 77.3163L61.1067 77.2971C60.4187 77.2239 59.9573 76.8919 59.9359 76.454C59.9138 75.9981 60.4736 75.5082 61.1111 75.4305C61.2066 75.4189 61.3031 75.4176 61.3989 75.4266C62.0736 75.4857 62.6966 76.0045 62.6808 76.4829C62.665 76.9612 62.0862 77.326 61.296 77.3163Z" fill="#312783"/>
<path d="M7.35296 39.6255C7.6515 40.6869 7.94625 41.7489 8.24984 42.8078C8.40636 43.3535 8.55027 43.9051 8.74971 44.4342C8.9864 45.0647 9.29566 45.1476 9.87128 44.7944C11.4071 43.8527 12.9429 42.9094 14.4787 41.9647C15.3933 41.4028 15.724 41.4979 16.1873 42.4739C17.3764 44.9819 18.5625 47.491 19.7457 50.0012C20.4842 51.5609 20.8894 51.6624 22.2041 50.5791C25.0056 48.2676 27.8037 45.9502 30.5984 43.6271C31.0945 43.2148 31.419 43.2148 31.915 43.654C35.0216 46.3911 38.1273 49.1295 41.2322 51.8691C42.1271 52.6583 42.4655 52.6307 43.2064 51.6836C45.6818 48.5218 48.1568 45.3597 50.6313 42.1971C51.2177 41.4484 51.4714 41.4215 52.1852 42.0443C53.7373 43.3978 55.2779 44.7642 56.8343 46.1133C57.5476 46.7323 57.7811 46.6912 58.269 45.861C58.9411 44.7154 59.5837 43.5494 60.2407 42.3936C60.3827 42.1445 60.5348 41.9011 60.6825 41.6552L60.8491 41.6725C60.9571 42.9272 61.1066 44.1767 61.1647 45.4365C61.4563 51.6521 60.1618 57.5081 57.0578 62.8786C53.7915 68.5291 49.203 72.7818 43.1174 74.99C33.7763 78.3803 25.0809 76.9484 17.3991 70.4355C11.4119 65.3591 8.09583 58.7281 7.02161 50.9156C6.54761 47.4694 6.74705 44.0207 7.12322 40.5777C7.1573 40.2676 7.19454 39.9568 7.22989 39.6467L7.35296 39.6255Z" fill="#FFFAEB"/>
<path d="M59.1892 32.5258C57.7211 32.0827 56.3761 31.6782 55.0324 31.2698C54.275 31.04 53.5056 30.8403 52.7672 30.5565C52.3632 30.4017 52.136 30.5089 51.8716 30.7985C51.4007 31.3173 50.9015 31.8098 50.4085 32.3075C49.8266 32.8944 49.4688 32.8719 49.02 32.1906C47.7646 30.2823 46.5452 28.3495 45.2653 26.4592C44.292 25.0215 43.2456 23.6339 42.2357 22.2213C41.8936 21.7423 41.52 21.6389 40.9469 21.8804C37.5816 23.293 34.1998 24.6729 30.8244 26.0624C30.6982 26.1137 30.5764 26.1728 30.4501 26.2197C29.7849 26.4656 29.5362 26.3642 29.3374 25.6713C29.0016 24.5046 28.7062 23.3264 28.3907 22.1539C28.0338 20.8299 27.6762 19.5065 27.3177 18.1838C27.1063 17.4055 26.9068 17.2848 26.1545 17.5417C23.3547 18.489 20.5565 19.4414 17.7601 20.399C16.9484 20.6758 16.8474 20.6116 16.665 19.7665C16.5287 19.1347 16.3886 18.5016 16.2011 17.8839C16.0913 17.5237 15.8856 17.1936 15.6615 16.7217C15.8988 16.3692 16.203 15.8748 16.5451 15.4118C19.0066 12.1056 21.8203 9.16284 25.2425 6.86732C27.9552 5.04889 30.8963 3.8931 34.1853 3.87769C37.1423 3.86228 39.8083 4.80296 42.2976 6.42299C47.805 10.0072 51.6652 15.0529 54.7869 20.7702C56.6709 24.2202 58.0001 27.8975 59.0156 31.6962C59.0743 31.9203 59.1109 32.1508 59.1892 32.5258Z" fill="#FFFAEB"/>
<path d="M38.5555 34.7237C38.5555 33.7907 38.8199 32.9432 39.3962 32.2195C40.1851 31.2249 41.5004 31.3206 42.1619 32.4044C42.9546 33.7034 42.7299 36.0285 41.7005 37.1477C40.9867 37.9246 39.9661 37.8996 39.2813 37.0886C38.806 36.5222 38.5517 35.6933 38.5555 34.7237Z" fill="#312783"/>
<path d="M24.4283 34.7667C24.179 35.5289 24.0628 36.2654 23.7163 36.8638C23.077 37.9689 21.7856 37.9888 21.0446 36.9498C20.132 35.6721 19.9281 34.2697 20.5214 32.7884C20.7796 32.1463 21.1917 31.6326 21.9276 31.5446C22.6901 31.4547 23.2701 31.8477 23.5888 32.484C23.9454 33.1974 24.1499 33.9897 24.4283 34.7667Z" fill="#312783"/>
<path d="M7.35297 39.6255C7.35297 39.6255 7.74807 28.826 15.659 16.7204C23.5699 4.61479 46.195 21.0411 46.4846 21.0411C46.7743 21.0411 59.1892 32.5258 59.1892 32.5258C59.1892 32.5258 61.1836 39.7815 60.8441 41.6732C60.5045 43.5648 57.0237 51.2405 57.0237 51.2405C57.0237 51.2405 42.5204 62.7496 42.0369 62.8478C41.5534 62.9461 29.0811 61.371 26.3735 60.7822C23.6658 60.1934 15.7379 52.4194 14.6744 51.7298C13.6109 51.0402 8.29339 46.4183 8.29339 46.4183L7.35297 39.6255Z" fill="#FFFAEB"/>
<path d="M18.349 32.7235C18.349 32.7235 23.739 44.745 24.4283 45.3351C25.1175 45.9252 36.1394 45.3351 36.1394 45.3351C36.1394 45.3351 41.7472 53.5977 41.7472 54.1878" fill="#FFFAEB"/>
<path d="M18.349 32.7235C18.8253 33.6931 19.2993 34.6637 19.771 35.6354L21.1835 38.5525C21.6587 39.5221 22.1252 40.4955 22.6055 41.4613C23.0858 42.427 23.5611 43.3972 24.0748 44.3353C24.201 44.5678 24.3361 44.8034 24.4756 45.0114C24.5049 45.0566 24.5374 45.0995 24.5728 45.1399L24.5785 45.1456H24.5842L24.6075 45.1559L24.6416 45.1675C24.7564 45.1997 24.8735 45.2227 24.9919 45.2362C25.4968 45.3004 26.032 45.3171 26.559 45.3299C27.6175 45.3511 28.6804 45.3338 29.7432 45.3184C30.8061 45.303 31.8696 45.267 32.9331 45.2317C33.9966 45.1964 35.0607 45.1611 36.123 45.1148L36.2448 45.109L36.3079 45.2086C36.7907 45.9386 37.2672 46.6713 37.7438 47.4052C38.2203 48.1391 38.6867 48.8821 39.1538 49.6192C39.6208 50.3563 40.0753 51.1069 40.5259 51.8582C40.7481 52.2351 40.9677 52.614 41.1823 52.9966C41.2892 53.188 41.3923 53.3806 41.4916 53.5745C41.5414 53.6721 41.59 53.771 41.6348 53.8712C41.6576 53.9213 41.679 53.972 41.698 54.0234C41.7199 54.0739 41.7339 54.1277 41.7396 54.1826C41.7303 54.1286 41.7128 54.0764 41.6879 54.0279C41.6658 53.9778 41.6405 53.929 41.6153 53.8808C41.5635 53.7845 41.5092 53.6882 41.4531 53.5964C41.342 53.4082 41.2246 53.224 41.1085 53.0397C40.8743 52.6705 40.6338 52.3057 40.3915 51.943C39.9105 51.2135 39.4151 50.4937 38.9253 49.7707L37.4515 47.6203L35.9626 45.4648L36.152 45.5585C35.0866 45.6219 34.0216 45.6782 32.9571 45.7274C31.8925 45.7766 30.8267 45.8122 29.7596 45.834C28.6924 45.8603 27.6251 45.868 26.5534 45.8411C26.0169 45.8244 25.4804 45.8064 24.9332 45.7345C24.7869 45.7167 24.6423 45.6867 24.5008 45.6446L24.4409 45.6234C24.4188 45.615 24.3954 45.6035 24.3727 45.5926L24.3557 45.5842C24.3494 45.5842 24.3418 45.5759 24.3349 45.5714L24.2926 45.5425C24.2798 45.5339 24.2682 45.5237 24.2579 45.5123L24.2282 45.4828C24.1749 45.4225 24.1264 45.3581 24.083 45.2901C23.9265 45.048 23.799 44.8098 23.6696 44.5684C23.4172 44.0862 23.1754 43.6014 22.9381 43.114C22.7008 42.6267 22.4685 42.1393 22.2438 41.6481L21.5622 40.1719C21.3375 39.6801 21.116 39.1878 20.8976 38.6951L20.2437 37.2112L19.6005 35.7228C19.1747 34.7267 18.7575 33.7269 18.349 32.7235Z" fill="#214EFF"/>
</g>
<defs>
<clipPath id="clip0_61_144">
<rect width="66" height="84" fill="white"/>
</clipPath>
</defs>
</svg>
