<svg width="35" height="39" viewBox="0 0 35 39" fill="none" xmlns="http://www.w3.org/2000/svg">
<path d="M20.1301 37.6942C26.2517 36.4671 34.1667 32.0634 34.1667 20.6761C34.1667 10.3134 26.5815 3.41288 21.1271 0.242185C19.9169 -0.461405 18.5 0.463887 18.5 1.86382V5.44459C18.5 8.26824 17.3129 13.4223 14.0141 15.566C12.3299 16.6606 10.511 15.0224 10.3063 13.0243L10.1382 11.3835C9.94287 9.47608 8.00022 8.31816 6.47576 9.48111C3.73705 11.5703 0.875 15.2288 0.875 20.6761C0.875 34.602 11.2324 38.0835 16.411 38.0835C16.7122 38.0835 17.0289 38.0745 17.3585 38.0555C14.8013 37.837 10.6667 36.2504 10.6667 31.1199C10.6667 27.1067 13.5945 24.3917 15.819 23.0719C16.4173 22.7169 17.1176 23.1779 17.1176 23.8735V25.0273C17.1176 25.9104 17.4591 27.2908 18.2721 28.2357C19.1921 29.3049 20.5423 28.1848 20.6512 26.7785C20.6857 26.3349 21.1318 26.0521 21.516 26.2768C22.7719 27.0107 24.375 28.5786 24.375 31.1199C24.375 35.1306 22.164 36.9755 20.1301 37.6942Z" fill="white"/>
</svg>
